<svg width="17" height="17" fill="none" xmlns="http://www.w3.org/2000/svg"><path fill-rule="evenodd" clip-rule="evenodd" d="M.1511 8.1596c0 .8689.6044 1.5866 1.3977 1.7755-.6044.5666-.7555 1.4732-.3022 2.2288.4156.7177 1.2844 1.0577 2.0777.831-.2267.7933.0755 1.6622.831 2.0777.7556.4533 1.6622.3022 2.2288-.3022.189.7933.9067 1.3977 1.7755 1.3977.8689 0 1.5866-.6044 1.7755-1.3977.5666.6044 1.4732.7555 2.2288.3022.7177-.4155 1.0577-1.2844.831-2.0777.7933.2267 1.6622-.1133 2.0777-.831.4533-.7556.3022-1.6622-.3022-2.2288.7933-.1889 1.3977-.9066 1.3977-1.7755 0-.8688-.6044-1.5866-1.3977-1.7754.6044-.5667.7555-1.4733.3022-2.2288-.4155-.7556-1.2844-1.0578-2.0777-.8311.2267-.7933-.1133-1.6621-.831-2.0777-.7556-.4533-1.6622-.3022-2.2288.3022C9.7462.7555 9.0285.1511 8.1596.1511c-.8688 0-1.5866.6044-1.7754 1.3977-.5667-.6044-1.4733-.7555-2.2288-.3022-.7556.4156-1.0578 1.2844-.8311 2.0777-.7933-.2267-1.6621.0755-2.0777.831-.4533.7556-.3022 1.6622.3022 2.2288-.7933.189-1.3977.9067-1.3977 1.7755z" fill="#37B0AC"/><path fill-rule="evenodd" clip-rule="evenodd" d="M10.1994 5.062v.0378l.0378.0378v.0377c0 .0378.0378.0378.0378.0756v.0378c0 .0377.0377.0377.0377.0377v.0756s0 .0378.0378.0378v.1889c.0378 0 .0378.0377.0378.0377v.68c0 .0378 0 .0378-.0378.0755v.1512l-.0378.0377v.0756l-.0377.0377v.0756l-.0378.0378v.0378c0 .0377-.0378.0377-.0378.0755v.0378c-.0378 0-.0378.0378-.0378.0378 0 .0377-.0377.0377-.0377.0755v.0378c-.0378 0-.0378.0378-.0378.0378l-.0378.0377c0 .0378 0 .0378-.0378.0378 0 .0378 0 .0378-.0378.0756v.0377c-.0377 0-.0377.0378-.0377.0378-.0378 0-.0378.0378-.0378.0378l-.0378.0378-.0378.0377c0 .0378-.0377.0378-.0377.0378 0 .0378-.0378.0378-.0378.0378 0 .0378-.0378.0378-.0378.0378 0 .0377-.0377.0377-.0377.0377 0 .0378-.0378.0378-.0378.0378-.0378 0-.0378.0378-.0378.0378-.0378 0-.0378.0378-.0378.0378-.0378 0-.0378.0377-.0378.0377-.0377 0-.0377 0-.0755.0378l-.0378.0378h-.0378c0 .0378-.0377.0378-.0377.0378-.0378 0-.0378.0378-.0378.0378h-.0756c0 .0377-.0377.0377-.0377.0377l-.0378.0378H9.066c0 .0378 0 .0378-.0377.0378 0 0-.0378 0-.0378.0378H8.915s-.0377 0-.0377.0377h-.1134c0 .0378-.0377.0378-.0377.0378h-.1134c-.0378.0378-.0378.0378-.0755.0378h-.1889c.6044.8688 1.7755 1.1333 2.6821.6044.9822-.5666 1.3221-1.8132.7555-2.7576-.34-.6044-.9444-.9822-1.5866-1.02z" fill="#fff"/><path fill-rule="evenodd" clip-rule="evenodd" d="M6.4976 4.8354h.0755l.0378.0378h.1889c0 .0377.0377.0377.0377.0377h.0756s.0378 0 .0378.0378h.1133v.0378h.0378c.0377 0 .0377 0 .0755.0378h.0378c.0378 0 .0378.0377.0378.0377h.0377l.0378.0378h.0378c.0378 0 .0378.0378.0378.0378h.0378s0 .0378.0377.0378c0 0 .0378 0 .0378.0378h.0378c.0378.0377.0378.0377.0755.0377 0 .0378 0 .0378.0378.0378l.0378.0378.0378.0378c.0377 0 .0377.0377.0377.0377.0378 0 .0378.0378.0378.0378.0378 0 .0378.0378.0378.0378.0378 0 .0378.0378.0378.0378.0377 0 .0377.0377.0755.0377v.0378l.0378.0378.0378.0378c.0377.0377.0377.0377.0377.0755.0378 0 .0378 0 .0378.0378l.0378.0378s0 .0377.0378.0377v.0378c.0378.0378.0378.0378.0378.0756 0 0 .0377 0 .0377.0377 0 0 0 .0378.0378.0378v.0378c0 .0378.0378.0378.0378.0756v.0377c.0378 0 .0378.0378.0378.0378 0 .0378 0 .0378.0377.0756v.0755c.0378.0378.0378.0378.0378.0756v.0377c0 .0378 0 .0378.0378.0756v.1511c.0378 0 .0378.0378.0378.0378v.6422c0 .0377-.0378.0377-.0378.0755v.1133s0 .0378-.0378.0378v.1134l-.0378.0377v.0756l-.0377.0377v.0378c-.0378.0378-.0378.0378-.0378.0756v.0378c1.02-.0756 1.851-.9822 1.851-2.04a2.0314 2.0314 0 00-2.0399-2.0399c-.68 0-1.2844.34-1.6621.8689z" fill="#fff"/><path fill-rule="evenodd" clip-rule="evenodd" d="M4.4576 7.933l.0378-.0377v-.0378c.0377 0 .0377 0 .0377-.0377l.0378-.0378.0378-.0378.0378-.0378.0378-.0378c0-.0377.0377-.0377.0377-.0377 0-.0378.0378-.0378.0378-.0378l.0378-.0378.0378-.0378.0377-.0377h.0378s0-.0378.0378-.0378c0 0 0-.0378.0378-.0378l.0377-.0378c.0378 0 .0378 0 .0378-.0377h.0756c0-.0378.0377-.0378.0377-.0378 0-.0378.0378-.0378.0378-.0378.0378 0 .0378-.0378.0756-.0378h.0377l.0378-.0377c.0378 0 .0378 0 .0756-.0378h.0377c.0378 0 .0378-.0378.0756-.0378h.0378l.0378-.0378h.1133c.0378-.0377.0378-.0377.0755-.0377h.1134s0-.0378.0377-.0378h.6422c.0378 0 .0378 0 .0756.0377h.151c0 .0378.0379.0378.0379.0378h.0755l.0378.0378h.0378c.0377 0 .0377 0 .0755.0378h.0378s.0378 0 .0378.0378h.0755s0 .0377.0378.0377h.0378l.0377.0378c.0378 0 .0378.0378.0756.0378l.0378.0378h.0377l.0378.0377c.0378 0 .0378.0378.0756.0378l.0378.0378.0377.0378s.0378 0 .0378.0377c0 0 .0378 0 .0378.0378 0 0 .0378 0 .0378.0378 0 0 .0377 0 .0377.0378.0378 0 .0378 0 .0378.0377.0378 0 .0378 0 .0378.0378.0378 0 .0378 0 .0378.0378.0377 0 .0377 0 .0377.0378.0378 0 .0378.0377.0378.0377l.0378.0378c0 .0378.0378.0378.0378.0378 0 .0378 0 .0378.0377.0378.4156-.9444.0756-2.0777-.831-2.6066C6.3464 4.76 5.0998 5.1 4.5332 6.082c-.34.5667-.3778 1.2467-.0756 1.851z" fill="#fff"/><path fill-rule="evenodd" clip-rule="evenodd" d="M6.1197 11.2573v-.0378c-.0378 0-.0378-.0378-.0378-.0378v-.0377l-.0378-.0378v-.0756h-.0378v-.1133l-.0377-.0378v-.1133c-.0378-.0378-.0378-.0378-.0378-.0755v-.2267l-.0378-.0378V10.1996c0-.0378.0378-.0378.0378-.0756V9.8974s0-.0378.0378-.0378v-.1133c0-.0378.0377-.0378.0377-.0756v-.0378c0-.0377 0-.0377.0378-.0377v-.0756s0-.0378.0378-.0378v-.0755l.0378-.0378v-.0378c0-.0378.0377-.0378.0377-.0378 0-.0377 0-.0377.0378-.0755v-.0378c.0378 0 .0378-.0378.0378-.0378 0-.0377.0378-.0377.0378-.0377 0-.0378 0-.0378.0377-.0756v-.0378c.0378 0 .0378-.0377.0378-.0377l.0378-.0378.0378-.0378c0-.0378.0377-.0378.0377-.0378 0-.0377.0378-.0377.0378-.0377 0-.0378 0-.0378.0378-.0378 0-.0378 0-.0378.0378-.0378 0-.0378 0-.0378.0377-.0378 0-.0377.0378-.0377.0378-.0377 0-.0378.0378-.0378.0378-.0378 0-.0378.0378-.0378.0378-.0378 0-.0378.0378-.0378.0378-.0378.0377 0 .0377-.0377.0377-.0377.0378 0 .0378-.0378.0378-.0378.0378 0 .0378 0 .0756-.0378l.0377-.0378h.0378c0-.0378.0378-.0378.0378-.0378.0378 0 .0378 0 .0755-.0377h.0378c0-.0378.0378-.0378.0378-.0378.0378 0 .0378 0 .0378-.0378h.0755l.0378-.0378h.0378c.0377 0 .0377-.0377.0755-.0377h.0378c.0378 0 .0378 0 .0756-.0378h.0755c.0378 0 .0378-.0378.0756-.0378h.151c.0378 0 .0378-.0378.0756-.0378h.0378c-.6044-.831-1.7755-1.1332-2.6821-.5666-.9822.5289-1.3222 1.7755-.7555 2.7576.34.6045.9444.9444 1.5866 1.02z" fill="#fff"/><path fill-rule="evenodd" clip-rule="evenodd" d="M9.8217 11.4839l-.0378-.0378h-.2267l-.0377-.0377H9.406c0-.0378-.0377-.0378-.0377-.0378h-.0756l-.0378-.0378h-.0755s0-.0378-.0378-.0378h-.0378c-.0377-.0378-.0377-.0378-.0755-.0378l-.0378-.0377h-.0378c-.0377-.0378-.0377-.0378-.0755-.0378l-.0378-.0378-.0378-.0378c-.0378 0-.0378 0-.0755-.0377l-.0378-.0378h-.0378c0-.0378-.0378-.0378-.0378-.0378l-.0377-.0378c-.0378-.0377-.0378-.0377-.0756-.0377 0-.0378 0-.0378-.0378-.0378 0-.0378 0-.0378-.0377-.0378 0-.0378 0-.0378-.0378-.0378 0-.0377 0-.0377-.0378-.0377 0-.0378 0-.0378-.0378-.0378 0-.0378 0-.0378-.0377-.0756l-.0378-.0377v-.0378c-.0378 0-.0378-.0378-.0378-.0378-.0378 0-.0378-.0378-.0378-.0378 0-.0377-.0377-.0377-.0377-.0377 0-.0378 0-.0378-.0378-.0756v-.0378c-.0378 0-.0378-.0378-.0378-.0378 0-.0377-.0378-.0377-.0378-.0377v-.0756c-.0377 0-.0377-.0378-.0377-.0378s0-.0377-.0378-.0377v-.0756s-.0378 0-.0378-.0378v-.0377c0-.0378 0-.0378-.0378-.0756v-.0755c-.0378-.0378-.0378-.0378-.0378-.0756V9.633c-.0377 0-.0377 0-.0377-.0378V8.8396l.0377-.0378v-.1133c0-.0378.0378-.0378.0378-.0756v-.0377c0-.0378 0-.0378.0378-.0756v-.0378s0-.0378.0378-.0378v-.0755l.0377-.0378V8.273c-1.0199.0756-1.851.9444-1.851 2.0399 0 1.0956.9066 2.0399 2.04 2.0399.6799 0 1.2843-.3399 1.662-.8688z" fill="#fff"/><path fill-rule="evenodd" clip-rule="evenodd" d="M11.8617 8.3484c0 .0378 0 .0378-.0378.0378v.0377l-.0378.0378v.0378c-.0378 0-.0378 0-.0378.0378-.0378 0-.0378 0-.0378.0377-.0377 0-.0377.0378-.0377.0378-.0378 0-.0378.0378-.0378.0378-.0378 0-.0378.0378-.0378.0378-.0378 0-.0378.0378-.0378.0378-.0377 0-.0377.0377-.0377.0377-.0378 0-.0378.0378-.0378.0378h-.0378s0 .0378-.0378.0378c0 0 0 .0378-.0377.0378 0 0-.0378 0-.0378.0377-.0378 0-.0378 0-.0378.0378h-.0755c0 .0378 0 .0378-.0378.0378 0 .0378-.0378.0378-.0378.0378-.0378 0-.0378.0377-.0755.0377l-.0378.0378h-.0378c-.0378 0-.0378.0378-.0755.0378h-.0378c0 .0378-.0378.0378-.0378.0378-.0378 0-.0378 0-.0755.0377h-.1134c0 .0378-.0378.0378-.0378.0378h-.0377c-.0378 0-.0378 0-.0756.0378h-.1511c-.0378 0-.0378.0378-.0755.0378h-.5289s-.0378 0-.0378-.0378h-.1888l-.0378-.0378h-.1134c0-.0378-.0377-.0378-.0377-.0378h-.0378c-.0378 0-.0378-.0377-.0756-.0377h-.0377c-.0378 0-.0378-.0378-.0378-.0378h-.0756c0-.0378-.0377-.0378-.0377-.0378s-.0378 0-.0378-.0378H8.915c0-.0377 0-.0377-.0378-.0377 0 0-.0377 0-.0377-.0378-.0378 0-.0378 0-.0378-.0378h-.0755c0-.0378 0-.0378-.0378-.0378 0 0 0-.0377-.0378-.0377l-.0378-.0378s-.0377 0-.0377-.0378c-.0378 0-.0378 0-.0378-.0378-.0378 0-.0378 0-.0378-.0377-.0378 0-.0378 0-.0378-.0378-.0378 0-.0378 0-.0378-.0378-.0377 0-.0377 0-.0377-.0378-.0378 0-.0378-.0378-.0378-.0378-.0378 0-.0378-.0377-.0378-.0377-.0378 0-.0378-.0378-.0378-.0378l-.0377-.0378c-.0378-.0378-.0378-.0378-.0378-.0755 0 0-.0378 0-.0378-.0378a2.0555 2.0555 0 00.831 2.6443c.9823.5666 2.2289.2267 2.7955-.7555.34-.5666.34-1.2844.0756-1.8888z" fill="#fff"/><path fill-rule="evenodd" clip-rule="evenodd" d="M2.0777 4.6465c.3778-.68 1.1333-.9444 1.8133-.7555-.189-.68.1133-1.4355.7555-1.8133.6422-.3778 1.4355-.2644 1.9643.2644.1511-.7177.7933-1.2088 1.5488-1.2088.7556 0 1.3977.4911 1.5488 1.2088.4911-.5288 1.3222-.6421 1.9644-.2644.6422.3778.9444 1.1333.7555 1.8133.68-.189 1.4355.0755 1.8133.7555.3777.6422.2644 1.4355-.2645 1.9643.68.1511 1.2089.7933 1.2089 1.5488 0 .7556-.5289 1.3977-1.2089 1.5488.5289.4911.6422 1.3222.2645 1.9644-.3778.6422-1.1333.9444-1.8133.7555.1889.68-.1133 1.4355-.7555 1.8133-.6422.3777-1.4733.2644-1.9644-.2645-.151.68-.7932 1.2089-1.5488 1.2089-.7555 0-1.3977-.5289-1.5488-1.2089-.5289.5289-1.3221.6422-1.9643.2645-.6422-.3778-.9444-1.1333-.7555-1.8133-.68.1889-1.4355-.1133-1.8133-.7555-.3778-.6422-.2644-1.4733.2644-1.9644-.7177-.151-1.2088-.7932-1.2088-1.5488 0-.7555.4911-1.3977 1.2088-1.5488-.5288-.5289-.6421-1.3221-.2644-1.9643zm7.744-2.6443C9.633 1.2465 8.953.7177 8.1598.7177c-.7934 0-1.4733.5288-1.6622 1.2843-.5289-.5666-1.36-.68-2.0777-.3021-.68.4155-.9822 1.2088-.7555 1.9643-.7555-.2267-1.5488.0756-1.9643.7555-.3778.7178-.2645 1.5488.3021 2.0777-.7555.1889-1.2843.8688-1.2843 1.6621 0 .7933.5288 1.4733 1.2843 1.6622-.5666.5288-.68 1.3599-.3021 2.0399.4155.7177 1.2088 1.0199 1.9643.7933-.2267.7555.0756 1.5488.7555 1.9643.7178.3778 1.5488.2267 2.0777-.3022.1889.7177.8688 1.2844 1.6621 1.2844.7933 0 1.4733-.5667 1.6622-1.2844.5288.5289 1.3599.68 2.0399.3022.7177-.4155 1.0199-1.2088.7933-1.9643.7555.2266 1.5488-.0756 1.9643-.7933.3778-.68.2267-1.5111-.3022-2.04.7177-.1888 1.2844-.8688 1.2844-1.662 0-.7934-.5667-1.4733-1.2844-1.6622.5289-.5289.68-1.36.3022-2.0777-.4155-.68-1.2088-.9822-1.9643-.7555.2266-.7555-.0756-1.5488-.7933-1.9643-.68-.3778-1.5111-.2645-2.04.3021z" fill="#fff"/></svg>