<?xml version="1.0" encoding="UTF-8"?>
<!DOCTYPE svg PUBLIC "-//W3C//DTD SVG 1.1//EN" "http://www.w3.org/Graphics/SVG/1.1/DTD/svg11.dtd">
<!-- Creator: CorelDRAW X7 -->
<svg xmlns="http://www.w3.org/2000/svg" xml:space="preserve" width="4.3178mm" height="4.3178mm" version="1.1" style="shape-rendering:geometricPrecision; text-rendering:geometricPrecision; image-rendering:optimizeQuality; fill-rule:evenodd; clip-rule:evenodd"
viewBox="0 0 432 432"
 xmlns:xlink="http://www.w3.org/1999/xlink">
 <defs>
  <style type="text/css">
   <![CDATA[
    .fil1 {fill:#37B0AC}
    .fil0 {fill:#E5FCFC}
    .fil2 {fill:white}
   ]]>
  </style>
 </defs>
 <g id="Слой_x0020_1">
  <metadata id="CorelCorpID_0Corel-Layer"/>
  <path class="fil0" d="M168 133c-9,0 -23,-14 -37,-31 -14,-17 -11,-37 4,-47 16,-9 29,4 34,4 5,0 18,-13 33,-3 16,10 18,29 4,46 -14,17 -28,31 -38,31z"/>
  <path class="fil0" d="M64 297c-10,0 -23,-14 -37,-31 -14,-17 -12,-37 4,-46 16,-10 28,3 33,3 6,0 18,-13 34,-3 15,10 18,29 4,46 -15,17 -28,31 -38,31z"/>
  <path class="fil1" d="M4 216c0,23 16,42 37,47 -16,15 -20,39 -8,59 11,19 34,28 55,22 -6,21 2,44 22,55 20,12 44,8 59,-8 5,21 24,37 47,37 23,0 42,-16 47,-37 15,16 39,20 59,8 19,-11 28,-34 22,-55 21,6 44,-3 55,-22 12,-20 8,-44 -8,-59 21,-5 37,-24 37,-47 0,-23 -16,-42 -37,-47 16,-15 20,-39 8,-59 -11,-20 -34,-28 -55,-22 6,-21 -3,-44 -22,-55 -20,-12 -44,-8 -59,8 -5,-21 -24,-37 -47,-37 -23,0 -42,16 -47,37 -15,-16 -39,-20 -59,-8 -20,11 -28,34 -22,55 -21,-6 -44,2 -55,22 -12,20 -8,44 8,59 -21,5 -37,24 -37,47z"/>
  <path class="fil2" d="M15 216c0,21 14,40 34,45 -14,14 -18,37 -8,56 11,18 33,27 53,21 -6,20 3,42 21,52 19,11 42,7 56,-8 5,20 23,35 45,35 21,0 40,-15 45,-35 14,15 37,19 56,8 18,-10 27,-32 21,-52 20,6 42,-3 52,-21 11,-19 7,-42 -8,-56 20,-5 35,-24 35,-45 0,-22 -15,-40 -35,-45 15,-14 19,-37 8,-56 -10,-18 -32,-27 -52,-21 6,-20 -3,-42 -21,-53 -19,-10 -42,-6 -56,8 -5,-20 -24,-34 -45,-34 -22,0 -40,14 -45,34 -14,-14 -37,-18 -56,-8 -18,11 -27,33 -21,53 -20,-6 -42,3 -53,21 -10,19 -6,42 8,56 -20,5 -34,23 -34,45z"/>
  <path class="fil1" d="M25 216c0,20 15,37 33,42 -14,14 -17,35 -7,53 10,18 31,26 50,20 -6,19 2,40 20,50 17,10 39,6 53,-8 4,19 22,33 42,33 20,0 37,-14 42,-33 14,14 35,18 53,8 18,-10 26,-31 20,-50 19,6 40,-2 50,-20 10,-18 6,-39 -8,-53 19,-5 33,-22 33,-42 0,-20 -14,-38 -33,-42 14,-14 18,-36 8,-53 -10,-18 -31,-26 -50,-20 6,-19 -2,-40 -20,-50 -18,-10 -39,-7 -53,7 -5,-18 -22,-33 -42,-33 -20,0 -38,15 -42,33 -14,-14 -36,-17 -53,-7 -18,10 -26,31 -20,50 -19,-6 -40,2 -50,20 -10,17 -7,39 7,53 -18,4 -33,22 -33,42z"/>
  <g id="_2692305947440">
   <path class="fil2" d="M236 309l-17 0 0 -61c0,-2 8,-10 18,-3 2,2 3,2 2,8l-3 56zm-34 -67c6,0 10,4 10,6l0 61 -16 0 -1 -9c0,-2 0,-3 0,-5 0,-2 0,-3 0,-4 0,-2 0,-4 0,-5 0,-2 -1,-3 -1,-5 0,-5 0,-10 0,-14 -1,-4 0,-9 -1,-14 0,-2 0,-4 0,-5 0,-3 5,-6 9,-6zm54 67l-13 0 3 -56c0,-5 0,-6 2,-8 5,-4 11,-4 16,0 1,1 2,1 1,4 0,1 0,3 0,4 -1,6 -2,13 -3,19l-6 37zm-80 -67c5,0 9,4 10,6 0,0 0,4 0,4 0,2 0,3 0,5l1 19c1,4 0,9 1,14l1 19 -13 0c-2,-5 -8,-49 -9,-56 0,-1 0,-2 -1,-4 0,-2 1,-3 2,-4 2,-1 4,-3 8,-3zm91 67l-4 0 8 -54c1,-2 1,-7 2,-8 2,-3 6,-3 9,-3 3,0 5,1 7,2 -1,2 -1,3 -2,4l-15 43c-1,3 -1,5 -2,8l-3 8zm-124 -63c3,-2 4,-2 8,-2 3,0 6,1 7,2 2,2 2,6 2,9 1,6 2,12 3,18 1,6 2,12 3,18 1,5 2,14 3,18l-4 0c0,-1 -1,-2 -1,-3l-10 -28c-1,-2 -10,-29 -11,-32zm19 -5c-3,-2 -6,-4 -11,-4 -3,0 -6,0 -8,1 -3,2 -4,4 -6,4 -1,-5 -1,-1 -1,-8 0,-3 3,-7 5,-8 3,-2 5,-3 10,-3l130 0c8,0 15,5 15,11 0,7 0,3 -2,8 -2,-1 -10,-11 -25,-1 -3,-2 -6,-6 -13,-6 -4,0 -8,1 -11,4 -1,0 -2,1 -3,2 -2,-2 -5,-6 -13,-6 -7,0 -10,4 -13,6 -2,-1 -2,-2 -6,-4 -5,-3 -10,-3 -15,0 -3,1 -4,3 -6,4 -3,-2 -6,-6 -13,-6 -7,0 -10,3 -14,6zm-13 -38c0,-4 1,-7 4,-10 2,-2 6,-4 9,-4l107 0c7,0 13,6 13,12 0,5 0,9 -4,11 -2,2 -5,4 -10,4l-104 0c-8,0 -15,-5 -15,-13zm36 -47l62 0c9,0 17,13 9,22 -1,1 -3,2 -4,3 -1,1 -3,1 -5,1l-62 0c-7,0 -12,-6 -12,-13 -1,-6 5,-13 12,-13zm8 -19c0,-4 0,-6 3,-10 1,-2 4,-3 7,-4 1,4 2,7 7,9 4,1 9,0 14,1 6,2 12,7 14,13 0,1 1,2 1,3 -10,0 -19,0 -29,0 -6,0 -8,0 -12,-2 -2,-2 -5,-6 -5,-10zm-7 -2c0,4 0,6 1,9 1,0 1,2 2,2 1,2 1,2 2,3 -11,0 -15,1 -21,7 -4,6 -5,14 -3,21 1,2 2,3 4,5 -10,0 -15,0 -20,4 -8,6 -11,15 -7,24 1,3 2,4 4,6 -3,0 -6,1 -8,2 -4,2 -7,5 -9,9 -4,8 -1,19 5,24 2,2 2,1 3,4 3,10 7,21 11,31l9 26c0,2 1,4 3,4l107 0c4,0 4,-5 6,-9l18 -52c1,-3 1,-2 3,-4 4,-4 7,-10 7,-16 0,-10 -10,-19 -19,-19 4,-5 5,-7 5,-14 0,-7 -4,-13 -8,-16 -6,-4 -10,-4 -20,-4 1,-2 2,-2 3,-5 6,-12 -3,-28 -18,-28 0,-7 -7,-16 -13,-20 -12,-7 -24,1 -24,-8 0,0 1,-5 -3,-5 -12,0 -20,9 -20,19z"/>
   <path class="fil2" d="M239 164c0,7 -1,5 7,5l0 -7c-5,0 -7,0 -7,2z"/>
   <path class="fil2" d="M192 169c9,0 7,2 7,-5 0,-2 -2,-2 -7,-2l0 7z"/>
   <path class="fil2" d="M219 197l0 6 7 0c0,-9 1,-7 -6,-7 -1,0 -1,0 -1,1z"/>
   <path class="fil2" d="M242 197l0 6 7 0c0,-9 2,-7 -5,-7 -1,0 -2,0 -2,1z"/>
   <path class="fil2" d="M179 197l0 6c9,0 7,1 7,-6 0,-2 -2,-1 -6,-1 -1,0 -1,0 -1,1z"/>
   <path class="fil2" d="M219 142c0,1 2,1 6,1 2,0 1,-3 1,-7l-7 0 0 6z"/>
   <polygon class="fil2" points="162,209 169,209 169,203 162,203 "/>
   <polygon class="fil2" points="199,209 206,209 206,203 199,203 "/>
   <polygon class="fil2" points="209,176 216,176 216,169 209,169 "/>
   <polygon class="fil2" points="259,209 266,209 266,203 259,203 "/>
  </g>
 </g>
</svg>
