<?xml version="1.0" encoding="UTF-8"?>
<!DOCTYPE svg PUBLIC "-//W3C//DTD SVG 1.1//EN" "http://www.w3.org/Graphics/SVG/1.1/DTD/svg11.dtd">
<!-- Creator: CorelDRAW X7 -->
<svg xmlns="http://www.w3.org/2000/svg" xml:space="preserve" width="4.3178mm" height="4.3178mm" version="1.1" style="shape-rendering:geometricPrecision; text-rendering:geometricPrecision; image-rendering:optimizeQuality; fill-rule:evenodd; clip-rule:evenodd"
viewBox="0 0 432 432"
 xmlns:xlink="http://www.w3.org/1999/xlink">
 <defs>
  <style type="text/css">
   <![CDATA[
    .fil2 {fill:#37B0AC}
    .fil0 {fill:#37B0AC}
    .fil1 {fill:white}
   ]]>
  </style>
 </defs>
 <g id="Слой_x0020_1">
  <metadata id="CorelCorpID_0Corel-Layer"/>
  <g id="_2692211588464">
   <path class="fil0" d="M4 216c0,23 16,42 37,47 -16,15 -20,39 -8,59 11,19 34,28 55,22 -6,21 2,44 22,55 20,12 44,8 59,-8 5,21 24,37 47,37 23,0 42,-16 47,-37 15,16 39,20 59,8 19,-11 28,-34 22,-55 21,6 44,-3 55,-22 12,-20 8,-44 -8,-59 21,-5 37,-24 37,-47 0,-23 -16,-42 -37,-47 16,-15 20,-39 8,-59 -11,-20 -34,-28 -55,-22 6,-21 -3,-44 -22,-55 -20,-12 -44,-8 -59,8 -5,-21 -24,-37 -47,-37 -23,0 -42,16 -47,37 -15,-16 -39,-20 -59,-8 -20,11 -28,34 -22,55 -21,-6 -44,2 -55,22 -12,20 -8,44 8,59 -21,5 -37,24 -37,47z"/>
   <path class="fil1" d="M15 216c0,21 14,40 34,45 -14,14 -18,37 -8,56 11,18 33,27 53,21 -6,20 3,42 21,52 19,11 42,7 56,-8 5,20 23,35 45,35 21,0 40,-15 45,-35 14,15 37,19 56,8 18,-10 27,-32 21,-52 20,6 42,-3 52,-21 11,-19 7,-42 -8,-56 20,-5 35,-24 35,-45 0,-22 -15,-40 -35,-45 15,-14 19,-37 8,-56 -10,-18 -32,-27 -52,-21 6,-20 -3,-42 -21,-53 -19,-10 -42,-6 -56,8 -5,-20 -24,-35 -45,-35 -22,0 -40,15 -45,35 -14,-14 -37,-18 -56,-8 -18,11 -27,33 -21,53 -20,-6 -42,3 -53,21 -10,19 -6,42 8,56 -20,5 -34,23 -34,45z"/>
   <path class="fil2" d="M25 216c0,20 15,37 33,42 -14,14 -17,35 -7,53 10,18 31,26 50,20 -6,19 2,40 20,50 17,10 39,6 53,-8 4,19 22,33 42,33 20,0 37,-14 42,-33 14,14 35,18 53,8 18,-10 26,-31 20,-50 19,6 40,-2 50,-20 10,-18 6,-39 -8,-53 19,-5 33,-22 33,-42 0,-20 -14,-38 -33,-42 14,-14 18,-36 8,-53 -10,-18 -31,-26 -50,-20 6,-19 -2,-40 -20,-50 -18,-10 -39,-7 -53,7 -5,-18 -22,-33 -42,-33 -20,0 -38,15 -42,33 -14,-14 -36,-17 -53,-7 -18,10 -26,31 -20,50 -19,-6 -40,2 -50,20 -10,17 -7,39 7,53 -18,4 -33,22 -33,42z"/>
   <path class="fil1" d="M161 290c42,0 76,-21 76,-46 0,-26 -34,-47 -76,-47 -42,0 -77,21 -77,47 0,25 35,46 77,46z"/>
   <path class="fil2" d="M161 283c-23,0 -43,-5 -58,-14 -17,-10 -27,-24 -27,-40 0,-16 10,-30 27,-39 15,-9 35,-15 58,-15l0 16c-20,0 -38,5 -50,12 -12,7 -19,16 -19,26 0,10 7,19 19,26 12,8 30,13 50,13l0 15zm0 -108c22,0 43,6 58,15 16,9 26,23 26,39 0,16 -10,30 -26,40 -15,9 -36,14 -58,14l0 -15c19,0 37,-5 50,-13 11,-7 18,-16 18,-26 0,-10 -7,-19 -18,-26 -13,-7 -31,-12 -50,-12l0 -16z"/>
   <path class="fil1" d="M161 276c42,0 76,-21 76,-47 0,-25 -34,-46 -76,-46 -42,0 -77,21 -77,46 0,26 35,47 77,47z"/>
   <path class="fil2" d="M161 265c-23,0 -43,-6 -58,-15 -17,-10 -27,-24 -27,-39 0,-16 10,-30 27,-40 15,-9 35,-15 58,-15l0 16c-20,0 -38,5 -50,13 -12,7 -19,16 -19,26 0,9 7,19 19,26 12,7 30,12 50,12l0 16zm0 -109c22,0 43,6 58,15 16,10 26,24 26,40 0,15 -10,29 -26,39 -15,9 -36,15 -58,15l0 -16c19,0 37,-5 50,-12 11,-7 18,-17 18,-26 0,-10 -7,-19 -18,-26 -13,-8 -31,-13 -50,-13l0 -16z"/>
   <path class="fil1" d="M161 257c42,0 76,-21 76,-46 0,-26 -34,-47 -76,-47 -42,0 -77,21 -77,47 0,25 35,46 77,46z"/>
   <path class="fil2" d="M261 292c-13,-5 -26,-13 -37,-24l0 0c-17,-16 -28,-34 -33,-51 -5,-18 -3,-35 8,-46l0 0 0 -1 0 0 0 0 0 0c11,-11 28,-14 46,-11 5,2 10,3 16,5l0 18c-7,-3 -13,-6 -19,-7 -13,-3 -25,-1 -31,6 0,0 -1,0 -1,1l0 0 0 0c-6,7 -7,18 -4,31 4,14 14,30 28,43l0 0c9,8 18,14 27,18l0 18zm37 -104l0 1 0 -1 0 1c16,15 27,33 32,50 5,18 3,35 -8,47 -10,11 -27,14 -46,11 -5,-1 -10,-3 -15,-5l0 -18c6,4 12,6 19,7 13,3 24,1 31,-6 7,-7 8,-19 4,-32 -4,-14 -14,-29 -28,-43 0,0 0,0 0,0l0 0 0 0c-9,-8 -18,-14 -26,-18l0 -18c12,5 25,14 37,24l0 0z"/>
   <path class="fil1" d="M292 194c31,29 42,67 25,86 -18,19 -57,11 -88,-18 -31,-29 -42,-67 -24,-86 17,-19 56,-11 87,18z"/>
   <path class="fil2" d="M271 281c-13,-5 -26,-13 -37,-24 -17,-15 -28,-33 -33,-50 -5,-19 -3,-36 8,-47 11,-12 27,-15 46,-11 5,1 10,2 16,5l0 17c-7,-3 -13,-5 -19,-7 -13,-2 -25,-1 -32,7 -6,7 -7,18 -4,31 4,15 14,30 28,43 9,8 18,14 27,19l0 17zm37 -103l0 0 0 0c16,15 27,33 32,50 5,18 3,35 -8,47 -10,11 -27,15 -46,11 -5,-1 -10,-3 -15,-5l0 -17c6,3 12,5 18,6 14,3 25,1 32,-6 6,-7 8,-19 4,-32 -4,-14 -14,-29 -28,-42 0,-1 0,-1 0,-1l0 0 0 0c-9,-8 -18,-14 -26,-18l0 -17c12,5 25,13 37,24l0 0 0 0 0 0z"/>
   <path class="fil1" d="M302 183c31,29 42,68 25,86 -18,19 -57,11 -88,-18 -31,-28 -42,-67 -24,-86 17,-18 56,-10 87,18z"/>
   <path class="fil2" d="M283 267c-12,-5 -25,-13 -37,-24l0 0 0 0 0 0 0 0c-16,-15 -28,-33 -32,-50 -5,-18 -3,-35 7,-47l0 0 1 0 0 0 0 0 0 0c11,-11 27,-15 46,-11 5,1 10,3 15,5l0 17c-6,-3 -13,-5 -19,-6 -13,-3 -24,-1 -31,6 0,0 0,0 0,0l0 0 0 0c-7,7 -8,19 -4,32 4,14 14,29 28,43 0,0 0,0 0,0l0 0 0 0c9,8 17,14 26,18l0 17zm37 -103l0 0 1 0c16,16 27,34 32,50 5,19 3,36 -8,47 -11,12 -28,15 -46,11 -5,-1 -10,-2 -16,-5l0 -17c7,3 13,6 19,7 13,2 25,1 31,-7 7,-7 8,-18 5,-31 -4,-14 -14,-30 -28,-43 0,0 -1,0 -1,-1l0 0 0 0c-8,-7 -17,-13 -26,-18l0 -17c13,5 26,13 37,24l0 0 0 0 0 0z"/>
   <path class="fil1" d="M315 170c31,29 42,67 24,86 -17,19 -56,10 -87,-18 -31,-29 -42,-68 -25,-86 18,-19 57,-11 88,18z"/>
  </g>
 </g>
</svg>
