<?xml version="1.0" encoding="UTF-8"?>
<!DOCTYPE svg PUBLIC "-//W3C//DTD SVG 1.1//EN" "http://www.w3.org/Graphics/SVG/1.1/DTD/svg11.dtd">
<!-- Creator: CorelDRAW X7 -->
<svg xmlns="http://www.w3.org/2000/svg" xml:space="preserve" width="4.3178mm" height="4.3178mm" version="1.1" style="shape-rendering:geometricPrecision; text-rendering:geometricPrecision; image-rendering:optimizeQuality; fill-rule:evenodd; clip-rule:evenodd"
viewBox="0 0 432 432"
 xmlns:xlink="http://www.w3.org/1999/xlink">
 <defs>
  <style type="text/css">
   <![CDATA[
    .fil1 {fill:#37B0AC}
    .fil0 {fill:#E5FCFC}
    .fil2 {fill:white}
   ]]>
  </style>
 </defs>
 <g id="Слой_x0020_1">
  <metadata id="CorelCorpID_0Corel-Layer"/>
  <g id="_2692352668176">
   <path class="fil0" d="M342 230c-10,0 -23,-14 -37,-31 -14,-17 -12,-37 4,-46 16,-10 28,3 34,3 5,0 17,-13 33,-3 16,10 18,29 4,46 -14,17 -28,31 -38,31z"/>
   <path class="fil0" d="M238 394c-10,0 -23,-14 -37,-31 -14,-17 -12,-37 4,-46 16,-10 28,3 33,3 5,0 18,-13 34,-3 15,10 17,30 3,46 -14,17 -27,31 -37,31z"/>
   <path class="fil1" d="M4 216c0,23 16,42 37,47 -16,15 -20,39 -8,59 11,19 34,28 55,22 -6,21 2,44 22,55 20,12 44,8 59,-8 5,21 24,37 47,37 23,0 42,-16 47,-37 15,16 39,20 59,8 19,-11 28,-34 22,-55 21,6 44,-3 55,-22 12,-20 8,-44 -8,-59 21,-5 37,-24 37,-47 0,-23 -16,-42 -37,-47 16,-15 20,-39 8,-59 -11,-20 -34,-28 -55,-22 6,-21 -3,-44 -22,-55 -20,-12 -44,-8 -59,8 -5,-21 -24,-37 -47,-37 -23,0 -42,16 -47,37 -15,-16 -39,-20 -59,-8 -20,11 -28,34 -22,55 -21,-6 -44,2 -55,22 -12,20 -8,44 8,59 -21,5 -37,24 -37,47z"/>
   <path class="fil2" d="M15 216c0,21 14,40 34,45 -14,14 -18,37 -8,56 11,18 33,27 53,21 -6,20 3,42 21,52 19,11 42,7 56,-8 5,20 23,35 45,35 21,0 40,-15 45,-35 14,15 37,19 56,8 18,-10 27,-32 21,-52 20,6 42,-3 52,-21 11,-19 7,-42 -8,-56 20,-5 35,-24 35,-45 0,-22 -15,-40 -35,-45 15,-14 19,-37 8,-56 -10,-18 -32,-27 -52,-21 6,-20 -3,-42 -21,-53 -19,-10 -42,-6 -56,8 -5,-20 -24,-34 -45,-34 -22,0 -40,14 -45,34 -14,-14 -37,-18 -56,-8 -18,11 -27,33 -21,53 -20,-6 -42,3 -53,21 -10,19 -6,42 8,56 -20,5 -34,23 -34,45z"/>
   <path class="fil1" d="M25 216c0,20 15,37 33,42 -14,14 -17,35 -7,53 10,18 31,26 50,20 -6,19 2,40 20,50 17,10 39,6 53,-8 4,19 22,33 42,33 20,0 37,-14 42,-33 14,14 35,18 53,8 18,-10 26,-31 20,-50 19,6 40,-2 50,-20 10,-18 6,-39 -8,-53 19,-5 33,-22 33,-42 0,-20 -14,-38 -33,-42 14,-14 18,-36 8,-53 -10,-18 -31,-26 -50,-20 6,-19 -2,-40 -20,-50 -18,-10 -39,-7 -53,7 -5,-18 -22,-32 -42,-32 -20,0 -38,14 -42,32 -14,-14 -36,-17 -53,-7 -18,10 -26,31 -20,50 -19,-6 -40,2 -50,20 -10,17 -7,39 7,53 -18,4 -33,22 -33,42z"/>
   <g>
    <path class="fil1" d="M216 329c-31,0 -60,-13 -80,-33 -21,-21 -33,-49 -33,-80 0,-31 12,-60 33,-80 20,-21 49,-33 80,-33l0 23c-25,0 -47,10 -63,27 -17,16 -27,38 -27,63 0,25 10,47 27,63 16,16 38,26 63,26l0 24zm0 -226c31,0 59,12 80,33 20,20 33,49 33,80 0,31 -13,59 -33,80 -21,20 -49,33 -80,33l0 -24c25,0 47,-10 63,-26 16,-16 26,-38 26,-63 0,-25 -10,-47 -26,-63 -16,-17 -38,-27 -63,-27l0 -23z"/>
    <path class="fil2" d="M216 115c56,0 101,45 101,101 0,56 -45,101 -101,101 -56,0 -101,-45 -101,-101 0,-56 45,-101 101,-101z"/>
    <path class="fil2" d="M216 121c52,0 95,42 95,95 0,52 -43,95 -95,95 -53,0 -95,-43 -95,-95 0,-53 42,-95 95,-95z"/>
    <path class="fil1" d="M310 227c-30,12 -66,9 -94,-11 14,32 44,52 76,57 10,-13 17,-29 18,-46z"/>
    <path class="fil1" d="M273 139c-5,33 -25,62 -57,77 35,3 67,-12 87,-38 -6,-15 -17,-29 -30,-39z"/>
    <path class="fil1" d="M178 128c26,21 41,53 38,88 20,-29 23,-64 11,-95 -4,0 -7,0 -11,0 -14,0 -26,2 -38,7z"/>
    <path class="fil1" d="M121 205c31,-12 66,-9 95,11 -15,-32 -44,-52 -77,-57 -9,13 -16,29 -18,46z"/>
    <path class="fil1" d="M159 292c5,-32 25,-62 57,-76 -35,-3 -67,12 -88,38 7,15 18,28 31,38z"/>
    <path class="fil1" d="M254 303c-26,-20 -41,-52 -38,-87 -20,28 -23,64 -11,94 4,1 7,1 11,1 13,0 26,-3 38,-8z"/>
   </g>
  </g>
 </g>
</svg>
